<?xml version="1.0" standalone="no"?>
<!DOCTYPE svg PUBLIC "-//W3C//DTD SVG 20010904//EN"
  "http://www.w3.org/TR/2001/REC-SVG-20010904/DTD/svg10.dtd">
<svg width="12" height="12">
  <circle cx="0" cy="0" r="1" fill="none"/>
  <circle cx="1" cy="0" r="1" fill="none"/>
  <circle cx="2" cy="0" r="1" fill="none"/>
  <circle cx="3" cy="0" r="1" fill="none"/>
  <circle cx="4" cy="0" r="1" fill="none"/>
  <circle cx="5" cy="0" r="1" fill="none"/>
  <circle cx="6" cy="0" r="1" fill="none"/>
  <circle cx="7" cy="0" r="1" fill="none"/>
  <circle cx="8" cy="0" r="1" fill="none"/>
  <circle cx="9" cy="0" r="1" fill="none"/>
  <circle cx="10" cy="0" r="1" fill="none"/>
  <circle cx="11" cy="0" r="1" fill="none"/>
  <circle cx="0" cy="1" r="1" fill="none"/>
  <circle cx="1" cy="1" r="1" fill="srgba(243,52,52,0)"/>
  <circle cx="2" cy="1" r="1" fill="srgba(243,52,52,0.00468452)"/>
  <circle cx="3" cy="1" r="1" fill="srgba(242,51,51,0.0125734)"/>
  <circle cx="4" cy="1" r="1" fill="srgba(239,35,35,0.00183108)"/>
  <circle cx="5" cy="1" r="1" fill="srgba(244,51,51,0.0102846)"/>
  <circle cx="6" cy="1" r="1" fill="srgba(246,48,48,0.00814832)"/>
  <circle cx="7" cy="1" r="1" fill="srgba(255,33,33,0.00143435)"/>
  <circle cx="8" cy="1" r="1" fill="srgba(244,52,52,0.0112917)"/>
  <circle cx="9" cy="1" r="1" fill="srgba(243,53,53,0.00593576)"/>
  <circle cx="10" cy="1" r="1" fill="srgba(243,53,53,0)"/>
  <circle cx="11" cy="1" r="1" fill="none"/>
  <circle cx="0" cy="2" r="1" fill="none"/>
  <circle cx="1" cy="2" r="1" fill="srgba(243,52,52,0)"/>
  <circle cx="2" cy="2" r="1" fill="srgba(243,52,52,0.0486305)"/>
  <circle cx="3" cy="2" r="1" fill="srgba(243,52,52,0.210147)"/>
  <circle cx="4" cy="2" r="1" fill="srgba(242,51,51,0.118547)"/>
  <circle cx="5" cy="2" r="1" fill="srgba(243,52,52,0.24097)"/>
  <circle cx="6" cy="2" r="1" fill="srgba(242,51,51,0.103563)"/>
  <circle cx="7" cy="2" r="1" fill="srgba(242,48,48,0.0533303)"/>
  <circle cx="8" cy="2" r="1" fill="srgba(243,53,53,0.259403)"/>
  <circle cx="9" cy="2" r="1" fill="srgba(243,53,53,0.0590677)"/>
  <circle cx="10" cy="2" r="1" fill="srgba(243,53,53,0)"/>
  <circle cx="11" cy="2" r="1" fill="none"/>
  <circle cx="0" cy="3" r="1" fill="none"/>
  <circle cx="1" cy="3" r="1" fill="srgba(243,53,53,0)"/>
  <circle cx="2" cy="3" r="1" fill="srgba(243,53,53,0.0646525)"/>
  <circle cx="3" cy="3" r="1" fill="srgba(243,52,52,0.398993)"/>
  <circle cx="4" cy="3" r="1" fill="srgba(243,53,53,0.479881)"/>
  <circle cx="5" cy="3" r="1" fill="srgba(243,52,52,0.46508)"/>
  <circle cx="6" cy="3" r="1" fill="srgba(243,52,52,0.225345)"/>
  <circle cx="7" cy="3" r="1" fill="srgba(243,52,52,0.300435)"/>
  <circle cx="8" cy="3" r="1" fill="srgba(243,53,53,0.475257)"/>
  <circle cx="9" cy="3" r="1" fill="srgba(243,53,53,0.0684062)"/>
  <circle cx="10" cy="3" r="1" fill="srgba(243,53,53,0)"/>
  <circle cx="11" cy="3" r="1" fill="none"/>
  <circle cx="0" cy="4" r="1" fill="none"/>
  <circle cx="1" cy="4" r="1" fill="srgba(243,53,53,0)"/>
  <circle cx="2" cy="4" r="1" fill="srgba(243,53,53,0.0663767)"/>
  <circle cx="3" cy="4" r="1" fill="srgba(243,53,53,0.553948)"/>
  <circle cx="4" cy="4" r="1" fill="srgba(243,53,53,0.627436)"/>
  <circle cx="5" cy="4" r="1" fill="srgba(243,52,52,0.477897)"/>
  <circle cx="6" cy="4" r="1" fill="srgba(243,52,52,0.395453)"/>
  <circle cx="7" cy="4" r="1" fill="srgba(243,52,52,0.481926)"/>
  <circle cx="8" cy="4" r="1" fill="srgba(243,53,53,0.503487)"/>
  <circle cx="9" cy="4" r="1" fill="srgba(243,53,53,0.0681468)"/>
  <circle cx="10" cy="4" r="1" fill="srgba(243,53,53,0)"/>
  <circle cx="11" cy="4" r="1" fill="none"/>
  <circle cx="0" cy="5" r="1" fill="none"/>
  <circle cx="1" cy="5" r="1" fill="srgba(243,53,53,0)"/>
  <circle cx="2" cy="5" r="1" fill="srgba(243,53,53,0.0678569)"/>
  <circle cx="3" cy="5" r="1" fill="srgba(243,53,53,0.491707)"/>
  <circle cx="4" cy="5" r="1" fill="srgba(243,52,52,0.456962)"/>
  <circle cx="5" cy="5" r="1" fill="srgba(243,52,52,0.369818)"/>
  <circle cx="6" cy="5" r="1" fill="srgba(243,52,52,0.48275)"/>
  <circle cx="7" cy="5" r="1" fill="srgba(243,53,53,0.637736)"/>
  <circle cx="8" cy="5" r="1" fill="srgba(243,53,53,0.541787)"/>
  <circle cx="9" cy="5" r="1" fill="srgba(243,53,53,0.065568)"/>
  <circle cx="10" cy="5" r="1" fill="srgba(243,53,53,0)"/>
  <circle cx="11" cy="5" r="1" fill="none"/>
  <circle cx="0" cy="6" r="1" fill="none"/>
  <circle cx="1" cy="6" r="1" fill="srgba(243,53,53,0)"/>
  <circle cx="2" cy="6" r="1" fill="srgba(243,53,53,0.0693217)"/>
  <circle cx="3" cy="6" r="1" fill="srgba(243,53,53,0.464271)"/>
  <circle cx="4" cy="6" r="1" fill="srgba(242,52,52,0.256458)"/>
  <circle cx="5" cy="6" r="1" fill="srgba(243,52,52,0.202106)"/>
  <circle cx="6" cy="6" r="1" fill="srgba(243,52,52,0.449287)"/>
  <circle cx="7" cy="6" r="1" fill="srgba(243,53,53,0.419272)"/>
  <circle cx="8" cy="6" r="1" fill="srgba(243,52,52,0.372412)"/>
  <circle cx="9" cy="6" r="1" fill="srgba(243,53,53,0.064622)"/>
  <circle cx="10" cy="6" r="1" fill="srgba(243,53,53,0)"/>
  <circle cx="11" cy="6" r="1" fill="none"/>
  <circle cx="0" cy="7" r="1" fill="none"/>
  <circle cx="1" cy="7" r="1" fill="srgba(246,53,53,0)"/>
  <circle cx="2" cy="7" r="1" fill="srgba(246,53,53,0.050309)"/>
  <circle cx="3" cy="7" r="1" fill="srgba(246,52,52,0.198444)"/>
  <circle cx="4" cy="7" r="1" fill="srgba(252,43,43,0.0299535)"/>
  <circle cx="5" cy="7" r="1" fill="srgba(247,50,50,0.0814679)"/>
  <circle cx="6" cy="7" r="1" fill="srgba(247,51,51,0.183352)"/>
  <circle cx="7" cy="7" r="1" fill="srgba(248,50,50,0.0778515)"/>
  <circle cx="8" cy="7" r="1" fill="srgba(246,52,52,0.165911)"/>
  <circle cx="9" cy="7" r="1" fill="srgba(245,52,52,0.0409247)"/>
  <circle cx="10" cy="7" r="1" fill="srgba(245,52,52,0)"/>
  <circle cx="11" cy="7" r="1" fill="none"/>
  <circle cx="0" cy="8" r="1" fill="none"/>
  <circle cx="1" cy="8" r="1" fill="srgba(84,73,73,0)"/>
  <circle cx="2" cy="8" r="1" fill="srgba(83,73,73,0.0411688)"/>
  <circle cx="3" cy="8" r="1" fill="srgba(78,73,73,0.0803845)"/>
  <circle cx="4" cy="8" r="1" fill="srgba(75,74,74,0.0610208)"/>
  <circle cx="5" cy="8" r="1" fill="srgba(83,73,73,0.0583505)"/>
  <circle cx="6" cy="8" r="1" fill="srgba(77,73,73,0.0855879)"/>
  <circle cx="7" cy="8" r="1" fill="srgba(73,74,74,0.06804)"/>
  <circle cx="8" cy="8" r="1" fill="srgba(80,73,73,0.0917525)"/>
  <circle cx="9" cy="8" r="1" fill="srgba(84,73,73,0.0286412)"/>
  <circle cx="10" cy="8" r="1" fill="srgba(88,72,72,0)"/>
  <circle cx="11" cy="8" r="1" fill="none"/>
  <circle cx="0" cy="9" r="1" fill="none"/>
  <circle cx="1" cy="9" r="1" fill="srgba(74,74,74,0)"/>
  <circle cx="2" cy="9" r="1" fill="srgba(74,74,74,0.0619974)"/>
  <circle cx="3" cy="9" r="1" fill="srgba(74,74,74,0.147524)"/>
  <circle cx="4" cy="9" r="1" fill="srgba(74,74,74,0.143038)"/>
  <circle cx="5" cy="9" r="1" fill="srgba(74,74,74,0.137606)"/>
  <circle cx="6" cy="9" r="1" fill="srgba(74,74,74,0.131334)"/>
  <circle cx="7" cy="9" r="1" fill="srgba(74,74,74,0.129595)"/>
  <circle cx="8" cy="9" r="1" fill="srgba(75,74,74,0.163043)"/>
  <circle cx="9" cy="9" r="1" fill="srgba(75,74,74,0.0576791)"/>
  <circle cx="10" cy="9" r="1" fill="srgba(74,74,74,0)"/>
  <circle cx="11" cy="9" r="1" fill="none"/>
  <circle cx="0" cy="10" r="1" fill="none"/>
  <circle cx="1" cy="10" r="1" fill="srgba(73,74,74,0)"/>
  <circle cx="2" cy="10" r="1" fill="srgba(74,74,74,6.10361e-05)"/>
  <circle cx="3" cy="10" r="1" fill="srgba(74,74,74,6.10361e-05)"/>
  <circle cx="4" cy="10" r="1" fill="srgba(69,76,76,0)"/>
  <circle cx="5" cy="10" r="1" fill="srgba(71,75,75,1.5259e-05)"/>
  <circle cx="6" cy="10" r="1" fill="srgba(75,74,74,0)"/>
  <circle cx="7" cy="10" r="1" fill="srgba(88,72,72,0)"/>
  <circle cx="8" cy="10" r="1" fill="srgba(87,72,72,0)"/>
  <circle cx="9" cy="10" r="1" fill="none"/>
  <circle cx="10" cy="10" r="1" fill="none"/>
  <circle cx="11" cy="10" r="1" fill="none"/>
  <circle cx="0" cy="11" r="1" fill="none"/>
  <circle cx="1" cy="11" r="1" fill="none"/>
  <circle cx="2" cy="11" r="1" fill="none"/>
  <circle cx="3" cy="11" r="1" fill="none"/>
  <circle cx="4" cy="11" r="1" fill="none"/>
  <circle cx="5" cy="11" r="1" fill="none"/>
  <circle cx="6" cy="11" r="1" fill="none"/>
  <circle cx="7" cy="11" r="1" fill="none"/>
  <circle cx="8" cy="11" r="1" fill="none"/>
  <circle cx="9" cy="11" r="1" fill="none"/>
  <circle cx="10" cy="11" r="1" fill="none"/>
  <circle cx="11" cy="11" r="1" fill="none"/>
</svg>
